name Run_20002_IK.mot
datacolumns 164
datarows 4
range 1.75 1.78
endheader
time	         pelvis_tilt	         pelvis_list	     pelvis_rotation	           pelvis_tx	           pelvis_ty	           pelvis_tz	       hip_flexion_r	     hip_adduction_r	      hip_rotation_r	        knee_angle_r	       ankle_angle_r	       hip_flexion_l	     hip_adduction_l	      hip_rotation_l	        knee_angle_l	       ankle_angle_l	    lumbar_extension	      lumbar_bending	     lumbar_rotation	          arm_flex_r	           arm_add_r	           arm_rot_r	        elbow_flex_r	           pro_sup_r	          arm_flex_l	           arm_add_l	           arm_rot_l	        elbow_flex_l	           pro_sup_l	    subtalar_angle_r	         mtp_angle_r	    subtalar_angle_l	         mtp_angle_l	        wrist_flex_r	         wrist_dev_r	        wrist_flex_l	         wrist_dev_l	             LASI_tx	             LASI_ty	             LASI_tz	             RASI_tx	             RASI_ty	             RASI_tz	             LPSI_tx	             LPSI_ty	             LPSI_tz	             RPSI_tx	             RPSI_ty	             RPSI_tz	             RTH1_tx	             RTH1_ty	             RTH1_tz	             RTH2_tx	             RTH2_ty	             RTH2_tz	             RTH3_tx	             RTH3_ty	             RTH3_tz	             LTH1_tx	             LTH1_ty	             LTH1_tz	             LTH2_tx	             LTH2_ty	             LTH2_tz	             LTH3_tx	             LTH3_ty	             LTH3_tz	             RTB1_tx	             RTB1_ty	             RTB1_tz	             RTB2_tx	             RTB2_ty	             RTB2_tz	             RTB3_tx	             RTB3_ty	             RTB3_tz	             LTB1_tx	             LTB1_ty	             LTB1_tz	             LTB2_tx	             LTB2_ty	             LTB2_tz	             LTB3_tx	             LTB3_ty	             LTB3_tz	             RCAL_tx	             RCAL_ty	             RCAL_tz	             RTOE_tx	             RTOE_ty	             RTOE_tz	             RMT5_tx	             RMT5_ty	             RMT5_tz	             LCAL_tx	             LCAL_ty	             LCAL_tz	             LTOE_tx	             LTOE_ty	             LTOE_tz	             LMT5_tx	             LMT5_ty	             LMT5_tz	             LACR_tx	             LACR_ty	             LACR_tz	             RACR_tx	             RACR_ty	             RACR_tz	             CLAV_tx	             CLAV_ty	             CLAV_tz	               C7_tx	               C7_ty	               C7_tz	             RUA1_tx	             RUA1_ty	             RUA1_tz	             RUA2_tx	             RUA2_ty	             RUA2_tz	             RUA3_tx	             RUA3_ty	             RUA3_tz	             RLEL_tx	             RLEL_ty	             RLEL_tz	             RMEL_tx	             RMEL_ty	             RMEL_tz	             LUA1_tx	             LUA1_ty	             LUA1_tz	             LUA2_tx	             LUA2_ty	             LUA2_tz	             LUA3_tx	             LUA3_ty	             LUA3_tz	             LLEL_tx	             LLEL_ty	             LLEL_tz	             LMEL_tx	             LMEL_ty	             LMEL_tz	      RFAsuperior_tx	      RFAsuperior_ty	      RFAsuperior_tz	        RFAradius_tx	        RFAradius_ty	        RFAradius_tz	          RFAulna_tx	          RFAulna_ty	          RFAulna_tz	      LFAsuperior_tx	      LFAsuperior_ty	      LFAsuperior_tz	        LFAradius_tx	        LFAradius_ty	        LFAradius_tz	          LFAulna_tx	          LFAulna_ty	          LFAulna_tz	
1.75	        -12.43250861	         -0.25567862	         -5.13853789	          1.03504337	          1.05030179	         -0.35003699	         27.26593721	          5.06684074	          6.34774163	         -9.65861939	          5.85018642	          3.71646813	          4.28235553	          0.68038030	        -38.62952082	        -12.26032777	          1.76274370	          3.27765685	         -3.62425695	        -46.48194398	        -18.12463504	        -17.55618651	        107.52000208	        109.53368217	        -31.91719027	        -14.39786362	         -4.00645171	        129.45363756	         97.40205030	          0.00000000	          0.00000000	          0.00000000	          0.00000000	          0.00000000	          0.00000000	          0.00000000	          0.00000000	          1.06192063	          1.08233304	         -0.47263569	          1.04055730	          1.09478356	         -0.23214779	          0.90027442	          1.14700564	         -0.42627515	          0.88619666	          1.14523089	         -0.31338051	          0.97379814	          0.97580921	         -0.17649484	          0.95832442	          0.81965171	         -0.20293477	          1.03302756	          0.68066984	         -0.21218819	          1.00119033	          0.94718004	         -0.52599678	          0.89008703	          0.81463859	         -0.49072534	          0.91528174	          0.67213709	         -0.47590951	          1.12904857	          0.43938848	         -0.28399227	          1.05542428	          0.38455301	         -0.21621228	          1.11884182	          0.25143964	         -0.30129356	          0.85028878	          0.44925476	         -0.40696464	          0.71969763	          0.42796384	         -0.46863318	          0.68078272	          0.31233384	         -0.40995302	          1.01820884	          0.09668535	         -0.29976394	          1.25298193	          0.14560216	         -0.34220725	          1.22357564	          0.09370087	         -0.25032556	          0.50962273	          0.32057134	         -0.40312204	          0.61791493	          0.11284434	         -0.36596997	          0.56545940	          0.11967909	         -0.46425744	          1.04084064	          1.58964603	         -0.49950648	          1.02322526	          1.56024721	         -0.18404752	          1.08885018	          1.52903534	         -0.30716825	          0.97246220	          1.59742587	         -0.34909898	          0.88177930	          1.50898441	         -0.15163281	          0.89627570	          1.44557280	         -0.10458167	          0.79891235	          1.40494113	         -0.08391595	          0.74298602	          1.35953377	         -0.06846215	          0.75407424	          1.32806271	         -0.15367791	          0.94848002	          1.50152751	         -0.57205768	          0.97779374	          1.42698061	         -0.59884773	          0.90812749	          1.36663813	         -0.63797675	          0.89469716	          1.29837837	         -0.65870792	          0.85867217	          1.27924084	         -0.57590047	          0.81236007	          1.27732246	         -0.05003705	          0.96082966	          1.18906871	         -0.10743381	          0.91690639	          1.15240058	         -0.06836257	          0.96292145	          1.25839849	         -0.63254231	          1.10162161	          1.29200299	         -0.51033796	          1.10943094	          1.22207812	         -0.53076928	
1.76	        -11.98207077	         -0.23849746	         -5.13547249	          1.03507197	          1.04547670	         -0.34960196	         27.02210791	          5.11328305	          6.07619653	        -10.90331531	          5.39876707	          4.57354995	          4.02021277	         -0.04831334	        -42.56257602	        -10.90232055	          1.25020928	          3.32284857	         -3.26761034	        -45.66573439	        -18.15346394	        -17.43319795	        107.80896577	        109.25831518	        -31.96421748	        -14.34112573	         -3.94621018	        128.59192747	         97.85952985	          0.00000000	          0.00000000	          0.00000000	          0.00000000	          0.00000000	          0.00000000	          0.00000000	          0.00000000	          1.06148862	          1.07796797	         -0.47262082	          1.04020428	          1.08954865	         -0.23162702	          0.89954897	          1.14122121	         -0.42579564	          0.88571440	          1.13900706	         -0.31285188	          0.97337917	          0.97012132	         -0.17651633	          0.95917436	          0.81377033	         -0.20359119	          1.03467227	          0.67559695	         -0.21312402	          1.00268739	          0.94222453	         -0.52560909	          0.89390197	          0.80789060	         -0.48975920	          0.92208641	          0.66588577	         -0.47583912	          1.12831802	          0.43275451	         -0.28426868	          1.05396330	          0.37906999	         -0.21637492	          1.11532800	          0.24506753	         -0.30160374	          0.85583070	          0.44411926	         -0.40900943	          0.72318599	          0.43042807	         -0.46934605	          0.68016552	          0.31519777	         -0.41295909	          1.01188693	          0.09374460	         -0.30055762	          1.24743729	          0.13636359	         -0.34291326	          1.21637234	          0.08446457	         -0.25110659	          0.50826632	          0.32961319	         -0.40290689	          0.61247991	          0.11864983	         -0.37226316	          0.55754876	          0.12868118	         -0.46911252	          1.03939846	          1.58477398	         -0.49851623	          1.02367461	          1.55389511	         -0.18312239	          1.08873731	          1.52348305	         -0.30665926	          0.97214713	          1.59202238	         -0.34788200	          0.88267802	          1.50143692	         -0.14893521	          0.89829451	          1.43771491	         -0.10294598	          0.80146071	          1.39605769	         -0.08139878	          0.74621917	          1.34977825	         -0.06590228	          0.75708213	          1.31864846	         -0.15114530	          0.94632371	          1.49681655	         -0.57044754	          0.97554037	          1.42232269	         -0.59768169	          0.90572768	          1.36213501	         -0.63643993	          0.89207791	          1.29396255	         -0.65705440	          0.85661667	          1.27485349	         -0.57418689	          0.81722876	          1.26892532	         -0.04804530	          0.96686747	          1.18367635	         -0.10670079	          0.92388118	          1.14592177	         -0.06756909	          0.95989110	          1.25262981	         -0.63180068	          1.09992758	          1.28292064	         -0.50991672	          1.10659683	          1.21324073	         -0.53156125	
1.77	        -11.62097224	         -0.21555965	         -5.06142196	          1.03501927	          1.03951588	         -0.34909338	         27.01039839	          5.10664049	          5.20516914	        -12.82818810	          4.23354396	          5.64986622	          3.64556672	         -0.83262189	        -46.61303748	         -9.69442351	          0.85288712	          3.33574481	         -2.93825352	        -44.74393950	        -18.21449177	        -17.23629465	        107.95083064	        109.05910553	        -32.03796235	        -14.31536048	         -3.87972465	        127.61207082	         98.36085001	          0.00000000	          0.00000000	          0.00000000	          0.00000000	          0.00000000	          0.00000000	          0.00000000	          0.00000000	          1.06082410	          1.07226854	         -0.47243842	          1.04000453	          1.08302803	         -0.23061405	          0.89876481	          1.13447831	         -0.42512306	          0.88534872	          1.13162156	         -0.31191721	          0.97294667	          0.96326046	         -0.17666279	          0.95959086	          0.80687213	         -0.20467911	          1.03618493	          0.66955841	         -0.21369319	          1.00368495	          0.93662085	         -0.52547559	          0.89769251	          0.80031314	         -0.48894316	          0.92898209	          0.65888615	         -0.47642694	          1.12679288	          0.42475764	         -0.28426323	          1.05123798	          0.37262937	         -0.21635342	          1.10979081	          0.23751239	         -0.30207732	          0.86233505	          0.43829868	         -0.41150352	          0.72799922	          0.43219180	         -0.46987965	          0.68107190	          0.31741741	         -0.41595631	          1.00214696	          0.09267269	         -0.30234979	          1.23916880	          0.12232080	         -0.34288812	          1.20461435	          0.07279092	         -0.25064513	          0.50893696	          0.33819880	         -0.40223074	          0.60817667	          0.12382764	         -0.37894918	          0.55110947	          0.13768426	         -0.47418624	          1.03780445	          1.57879131	         -0.49751657	          1.02422766	          1.54663583	         -0.18225135	          1.08854856	          1.51691496	         -0.30625797	          0.97177702	          1.58560226	         -0.34673426	          0.88383355	          1.49273236	         -0.14599010	          0.90071554	          1.42868754	         -0.10116521	          0.80458657	          1.38577472	         -0.07863816	          0.75015262	          1.33870011	         -0.06287017	          0.76058169	          1.30766869	         -0.14803386	          0.94399590	          1.49099195	         -0.56886209	          0.97308324	          1.41650366	         -0.59649277	          0.90310196	          1.35643130	         -0.63472628	          0.88915581	          1.28847077	         -0.65541341	          0.85422824	          1.26938882	         -0.57248038	          0.82271194	          1.25917492	         -0.04576991	          0.97329568	          1.17686004	         -0.10588026	          0.93134738	          1.13811068	         -0.06656243	          0.95647720	          1.24563651	         -0.63115173	          1.09792640	          1.27224169	         -0.50962754	          1.10327304	          1.20291967	         -0.53260379	
1.78	        -11.41656369	         -0.23688676	         -4.90595657	          1.03476678	          1.03236182	         -0.34862015	         27.31296622	          5.09785670	          3.86666203	        -15.42085310	          3.12732182	          7.02684883	          3.12628415	         -1.57123829	        -50.78885383	         -8.56017260	          0.63195897	          3.38605613	         -2.64059769	        -43.74332200	        -18.33175057	        -16.96822171	        107.95379186	        108.87201635	        -32.13421800	        -14.31582869	         -3.77439000	        126.51446617	         98.90947565	          0.00000000	          0.00000000	          0.00000000	          0.00000000	          0.00000000	          0.00000000	          0.00000000	          0.00000000	          1.05985587	          1.06507742	         -0.47192811	          1.03997034	          1.07518679	         -0.22967111	          0.89781273	          1.12687746	         -0.42429705	          0.88498831	          1.12334733	         -0.31077284	          0.97282894	          0.95515183	         -0.17702664	          0.95941735	          0.79927582	         -0.20565362	          1.03756749	          0.66252202	         -0.21372977	          1.00415312	          0.93032610	         -0.52548011	          0.90157542	          0.79179435	         -0.48854309	          0.93610043	          0.65106791	         -0.47774185	          1.12489030	          0.41586594	         -0.28417035	          1.04726114	          0.36560103	         -0.21701114	          1.10218716	          0.22917039	         -0.30324597	          0.86975349	          0.43187991	         -0.41439851	          0.73416661	          0.43301888	         -0.47032216	          0.68340635	          0.31893207	         -0.41874637	          0.98898772	          0.09300518	         -0.30538492	          1.22786143	          0.10574008	         -0.34254676	          1.18900721	          0.06147543	         -0.24922230	          0.51146789	          0.34608045	         -0.40116752	          0.60513334	          0.12844318	         -0.38590009	          0.54642666	          0.14657471	         -0.47933059	          1.03603673	          1.57170222	         -0.49661167	          1.02490035	          1.53851827	         -0.18143084	          1.08832084	          1.50936316	         -0.30596279	          0.97124505	          1.57808573	         -0.34571793	          0.88527467	          1.48292969	         -0.14288482	          0.90354248	          1.41854227	         -0.09929707	          0.80831509	          1.37418669	         -0.07566042	          0.75481176	          1.32644532	         -0.05935950	          0.76445949	          1.29542664	         -0.14435332	          0.94146619	          1.48408392	         -0.56724029	          0.97046239	          1.40955016	         -0.59528945	          0.90028316	          1.34964012	         -0.63301443	          0.88591050	          1.28197769	         -0.65383886	          0.85144491	          1.26292686	         -0.57085079	          0.82881052	          1.24810803	         -0.04326078	          0.98012060	          1.16863378	         -0.10502041	          0.93927468	          1.12898782	         -0.06542364	          0.95263688	          1.23748930	         -0.63061145	          1.09552763	          1.26004845	         -0.50950854	          1.09939270	          1.19117519	         -0.53390996	
